<?xml version="1.0" encoding="UTF-8" standalone="no"?>
<svg
   xmlns:dc="http://purl.org/dc/elements/1.1/"
   xmlns:cc="http://creativecommons.org/ns#"
   xmlns:rdf="http://www.w3.org/1999/02/22-rdf-syntax-ns#"
   xmlns:svg="http://www.w3.org/2000/svg"
   xmlns="http://www.w3.org/2000/svg"
   viewBox="0 0 1122.52 793.70667"
   height="793.70667"
   width="1122.52"   
   xml:space="preserve"
   id="svg2"
   version="1.1"><metadata
     id="metadata8"><rdf:RDF><cc:Work
         rdf:about=""><dc:format>image/svg+xml</dc:format><dc:type
           rdf:resource="http://purl.org/dc/dcmitype/StillImage" /></cc:Work></rdf:RDF></metadata><defs
     id="defs6"><clipPath
       id="clipPath18"
       clipPathUnits="userSpaceOnUse"><path
         id="path16"
         d="M 0,595.28 H 841.89 V 0 H 0 Z" /></clipPath></defs><g
     transform="matrix(1.3333333,0,0,-1.3333333,0,793.70667)"
     id="g10"><g
       id="g12"><g
         clip-path="url(#clipPath18)"
         id="g14"><g
           transform="translate(345.2974,315.6902)"
           id="g20"><path
             id="path22"
             style="fill:#34425c;fill-opacity:1;fill-rule:nonzero;stroke:none"
             d="m 0,0 h 5.736 c 0,0 -0.797,42.696 0.796,49.865 0,0 -101.642,0.637 -116.299,1.115 v -5.098 c 0,0 14.657,0.159 14.657,-9.24 V -81.729 c 0,0 0.956,-10.673 -14.657,-10.833 v -4.301 c 0,0 108.493,0.637 120.441,0 0,0 -1.275,47.157 0,54.485 H 4.461 c 0,0 -3.346,-30.232 -19.277,-42.218 -13.064,-10.037 -28.677,-8.603 -32.978,-6.691 -4.302,1.912 -5.098,11.311 -5.098,17.206 V 38.235 c 0,0 1.116,15.294 30.907,3.824 C 0,31.862 0,0 0,0" /></g><g
           transform="translate(328.0913,322.6999)"
           id="g24"><path
             id="path26"
             style="fill:#34425c;fill-opacity:1;fill-rule:nonzero;stroke:none"
             d="m 0,0 c 0,0 -2.15,-30.827 0,-59.026 h -4.54 c 0,0 -4.063,28.437 -31.783,27.163 l 0.637,4.461 c 8.519,0 16.765,3.512 22.316,9.973 3.519,4.096 6.636,9.74 7.953,17.429 z" /></g><g
           transform="translate(418.4224,377.5031)"
           id="g28"><path
             id="path30"
             style="fill:#34425c;fill-opacity:1;fill-rule:nonzero;stroke:none"
             d="m 0,0 h -49.706 v -2.868 c 0,0 12.108,-2.867 12.108,-16.568 v -123.627 c 0,0 0.702,-11.152 -12.108,-11.152 v -4.461 h 61.177 v 4.142 c 0,0 -12.108,1.275 -12.108,14.02 C -0.637,-127.769 0,0 0,0" /></g><g
           transform="translate(433.3984,327.4787)"
           id="g32"><path
             id="path34"
             style="fill:#34425c;fill-opacity:1;fill-rule:nonzero;stroke:none"
             d="m 0,0 v -4.779 c 0,0 14.338,-2.39 16.409,-9.081 2.07,-6.691 -1.195,-12.506 -5.098,-16.41 C 7.407,-34.172 -9.4,-49.387 -9.4,-49.387 h -8.922 l 2.845,-5.419 h 4.643 c 0,0 19.914,-38.233 21.029,-41.897 1.116,-3.665 1.593,-7.647 -6.053,-7.647 v -4.302 h 54.644 v 4.779 c 0,0 -5.417,3.984 -8.443,10.197 -3.028,6.214 -33.138,62.61 -33.138,62.61 0,0 12.586,11.63 19.437,17.684 6.85,6.054 13.701,6.691 16.09,7.806 C 55.122,-4.46 54.963,0 49.864,0 Z" /></g><g
           transform="translate(497.7607,366.6706)"
           id="g36"><path
             id="path38"
             style="fill:#34425c;fill-opacity:1;fill-rule:nonzero;stroke:none"
             d="m 0,0 v -4.461 c 0,0 14.657,0.956 14.657,-14.976 v -90.808 -21.985 c 0,0 2.549,-10.197 -14.657,-11.153 v -4.461 h 120.122 c 0,0 -1.274,49.706 0,56.398 h -6.054 c 0,0 -1.912,-24.534 -20.391,-40.466 -12.427,-11.232 -16.489,-11.471 -24.854,-11.471 -8.364,0 -12.187,0.956 -12.187,21.507 V -16.25 c 0,0 -0.239,11.47 16.967,11.47 V 0 C 73.603,0 28.198,-0.717 0,0" /></g><path
           id="path40"
           style="fill:#34425c;fill-opacity:1;fill-rule:nonzero;stroke:none"
           d="M 272.172,171.033 H 235.53 v 15.932 h 36.642 z" /><path
           id="path42"
           style="fill:#34425c;fill-opacity:1;fill-rule:nonzero;stroke:none"
           d="m 617.883,171.033 h -36.642 v 15.932 h 36.642 z" /><g
           transform="translate(281.2085,197.7341)"
           id="g44"><path
             id="path46"
             style="fill:#34425c;fill-opacity:1;fill-rule:nonzero;stroke:none"
             d="M 0,0 H 3.019 V -15.029 C 5.317,-12.744 13.364,-5.006 18.387,0 h 3.884 L 9.209,-12.572 22.972,-29.665 H 19.261 L 7.055,-14.541 3.019,-18.134 V -29.665 H 0 Z" /></g><path
           id="path48"
           style="fill:#34425c;fill-opacity:1;fill-rule:nonzero;stroke:none"
           d="m 327.193,189.452 h 2.847 v -21.383 h -2.847 z m 0,9.884 h 2.847 v -4.362 h -2.847 z" /><g
           transform="translate(353.541,189.4519)"
           id="g50"><path
             id="path52"
             style="fill:#34425c;fill-opacity:1;fill-rule:nonzero;stroke:none"
             d="M 0,0 H 3.851 V 6.508 H 6.698 V 0 h 4.919 V -2.466 H 6.698 V -15.74 c 0,-2.249 0.507,-3.48 2.507,-3.48 0.584,0 1.421,0.036 2.059,0.222 v -2.295 c -0.81,-0.316 -1.946,-0.389 -2.901,-0.389 -3.005,0 -4.512,1.53 -4.512,5.015 v 14.201 l -3.851,0 z" /></g><g
           transform="translate(404.8657,174.4724)"
           id="g54"><path
             id="path56"
             style="fill:#34425c;fill-opacity:1;fill-rule:nonzero;stroke:none"
             d="m 0,0 c -0.973,-3.725 -3.458,-6.915 -8.544,-6.915 -5.594,0 -9.328,4.096 -9.328,11.105 0,5.948 3.259,11.301 9.59,11.301 5.761,0 7.947,-4.095 8.282,-6.983 h -2.856 c -0.593,2.345 -2.095,4.48 -5.485,4.48 -4.191,0 -6.562,-3.57 -6.562,-8.693 0,-4.987 2.249,-8.712 6.386,-8.712 2.919,0 4.652,1.507 5.652,4.417 z" /></g><g
           transform="translate(431.9697,199.3357)"
           id="g58"><path
             id="path60"
             style="fill:#34425c;fill-opacity:1;fill-rule:nonzero;stroke:none"
             d="m 0,0 v -13.273 c 1.149,2.063 3.177,3.901 6.883,3.901 3.213,0 7.214,-1.692 7.214,-8.273 v -13.622 h -2.838 v 13.111 c 0,3.96 -1.751,6.186 -5.1,6.186 C 2.104,-11.97 0,-14.55 0,-19.446 V -31.267 H -2.847 V 0 Z" /></g><g
           transform="translate(486.1045,180.528)"
           id="g62"><path
             id="path64"
             style="fill:#34425c;fill-opacity:1;fill-rule:nonzero;stroke:none"
             d="m 0,0 c -0.041,3.905 -2.104,7.01 -6.051,7.01 -4.114,0 -5.96,-2.869 -6.386,-7.01 z m -12.567,-2.214 c 0.036,-4.982 2.547,-8.254 6.435,-8.254 3.729,0 4.973,2.028 5.706,3.697 h 2.883 c -0.873,-2.788 -3.154,-6.2 -8.688,-6.2 -6.599,0 -9.224,5.539 -9.224,11.006 0,6.228 3.113,11.401 9.472,11.401 6.73,0 8.902,-5.617 8.902,-9.884 0,-0.625 0,-1.199 -0.05,-1.766 z" /></g><g
           transform="translate(513.5615,184.0671)"
           id="g66"><path
             id="path68"
             style="fill:#34425c;fill-opacity:1;fill-rule:nonzero;stroke:none"
             d="M 0,0 C 0,1.868 0,3.701 -0.041,5.385 H 2.737 C 2.828,4.729 2.878,2.189 2.851,1.574 c 0.9,2.024 2.647,4.322 6.928,4.322 3.902,0 7.169,-2.281 7.169,-8.083 v -13.811 h -2.846 v 13.409 c 0,3.543 -1.44,5.888 -4.952,5.888 -4.607,0 -6.299,-3.706 -6.299,-8.2 V -15.998 H 0 Z" /></g><g
           transform="translate(557.3555,174.07)"
           id="g70"><path
             id="path72"
             style="fill:#34425c;fill-opacity:1;fill-rule:nonzero;stroke:none"
             d="m 0,0 c 0.674,-2.58 2.534,-4.114 5.692,-4.114 3.503,0 4.902,1.575 4.902,3.76 0,2.241 -1.004,3.313 -5.471,4.395 -5.789,1.398 -7.114,3.159 -7.114,6.015 0,2.986 2.221,5.838 7.358,5.838 5.141,0 7.431,-3.06 7.743,-6.074 h -2.792 c -0.348,1.612 -1.593,3.698 -5.069,3.698 -3.39,0 -4.381,-1.657 -4.381,-3.227 0,-1.802 0.96,-2.697 5.051,-3.68 6.236,-1.493 7.644,-3.552 7.644,-6.747 0,-3.824 -3.078,-6.377 -7.947,-6.377 -5.178,0 -7.906,2.675 -8.481,6.513 z" /></g></g></g></g></svg>